# xmcd CD database file
#
# Track frame offsets:
#	150
#	13861
#	28912
#	42191
#	53810
#	68051
#	79966
#	95037
#	107351
#	122054
#	137497
#	159415
#	174884
#	188050
#	204842
#	222988
#	239019
#	255278
#
# Disc length: 3673 seconds
#
# Revision: 1
# Processed by: cddbd v1.4PL0 Copyright (c) Steve Scherf et al.
# Submitted via: CDex 1.50Beta7
#
DISCID=ef0e5712
DTITLE=Various Artist - 50 years of Country - Disc 8 - 1990 - 1999
DYEAR=2000
DGENRE=Country
TTITLE0=Pirates of the Mississippi - Honk tonk blues - 1990
TTITLE1=BIlly Dean - If there hadn't been you - 1992
TTITLE2=Hall Ketchum - Small town saturday night - 1992
TTITLE3=Chris Ledoux and Garth Brooks /Whatcha gonne do with a cowboy - 1992
TTITLE4=Suzy Bogguss - Drive south - 1992
TTITLE5=Tanya Tucker - It's a little too late - 1992
TTITLE6=John Berry - Your love amazes me - 1994
TTITLE7=Ken Mellons - Jukebox junkie - 1993
TTITLE8=Wynonna - Girls with guitars - 1993
TTITLE9=Emilio - Honky tonk habits - 1995
TTITLE10=Deana Carter - Strawberry wine - 1995
TTITLE11=George Ducas - Tricky Moon - 1996
TTITLE12=The Ranch - Walkin' the country - 1997
TTITLE13=Leann Rimes - One way ticket (because I can) - 1996
TTITLE14=Trace Adkins - (This ain't no) thinkin' thing - 1997
TTITLE15=Tim McGraw - Just to see you smile - 1997
TTITLE16=David Kersh - If I never stop loving you - 1997
TTITLE17=Steve Wariner - Two teardrops - 1999
EXTD=YEAR: 2000
EXTT0=
EXTT1=
EXTT2=
EXTT3=
EXTT4=
EXTT5=
EXTT6=
EXTT7=
EXTT8=
EXTT9=
EXTT10=
EXTT11=
EXTT12=
EXTT13=
EXTT14=
EXTT15=
EXTT16=
EXTT17=
PLAYORDER=
